#!OML:ASF F:\VICON\USERDATA\INSTALL\rory3\rory3.ASF
:FULLY-SPECIFIED
:DEGREES
28
root -0.06153194290088437 17.67839997752583 6.360706280564573 -4.390260336068801 -0.34789886233548484 -2.1352365502649997
lfemur -16.495267261236307 2.75940906989932 -15.587350800713232
ltibia 63.22765423362088
lfoot -8.501340742675426 -6.904634489832842
ltoes -6.231807205202406
rfemur -11.348346720760063 -0.5910605889302154 31.47125274564319
rtibia 36.703370195624274
rfoot -16.576692052767427 -8.960142604552951
rtoes 5.27348816058998
lowerback 11.529741621809181 -0.9725815954944681 1.781342450888706
upperback 0.31999889148527105 -0.9502197466447879 1.8630476033506596
thorax -4.468735047724243 -0.5536812437899958 2.0905679960831804
lowerneck -16.497960649790095 -2.9312922364559104 -1.7350974695267167
upperneck 20.109201623002846 -3.720887916852737 -0.18612622959244463
head 9.186252302166261 -1.8331052375726196 -0.23712631436485537
lclavicle 1.4704780915426882e-16 2.3703355935158205e-16
lhumerus -29.896036531372726 3.3728643533823823 81.4410367442839
lradius 22.879800288752023
lwrist 7.194285371194293
lhand -29.918582513209973 18.21040339138685
lfingers 7.12502
lthumb -3.2507050146439855 47.6898407466953
rclavicle 1.4412334944840058e-16 2.3480917081978885e-16
rhumerus -29.304281914521454 -25.435498221211738 -73.41084449104164
rradius 22.61780680330589
rwrist 9.595279724464179
rhand -18.278843470120684 23.07342816357883
rfingers 7.12502
rthumb 7.990058456688018 -7.262456041034052
29
root -0.10318094742309208 17.691683911673785 7.016814580536957 -4.373911920208601 -0.6146825842679473 -2.565599954058494
lfemur -20.431022807598076 2.9746656326760714 -15.14385394734733
ltibia 58.8552961482103
lfoot -8.461833581212545 -3.714939131874163
ltoes -3.1317785591096396
rfemur -10.644700466769233 -0.73655763047734 31.132835299755644
rtibia 38.462923734870174
rfoot -18.062554391123935 -10.41481517750581
rtoes 5.238110373341142
lowerback 11.773773588128451 -0.7327494058177064 2.3729845386751363
upperback 0.3615768441712991 -0.5738868235421821 1.9741279404936805
thorax -4.535842816050947 -0.3725731018298032 1.8052174072253795
lowerneck -16.615280657705583 -2.9582682312798694 -1.7505230019761127
upperneck 20.14669226945246 -3.756409595986382 -0.2668845601467914
head 9.184168168852354 -1.8539261837365122 -0.2515255655138801
lclavicle 1.4777353580902134e-16 2.3759582578369137e-16
lhumerus -31.733613134304647 4.1876168005231085 81.32834591735173
lradius 21.02708266486584
lwrist 5.821189418434743
lhand -29.629847917659024 19.511257445041558
lfingers 7.12502
lthumb -2.9016455549530003 48.850687337718036
rclavicle 1.445538024731352e-16 2.3514023490996747e-16
rhumerus -27.08252495565847 -23.322947122329985 -74.19341902061197
rradius 24.020019100745316
rwrist 8.71864436207729
rhand -18.18304949525364 22.81970144242986
rfingers 7.12502
rthumb 8.155652401307387 -7.139679135597231
30
root -0.12223097185100479 17.74923318188206 7.605135124501997 -4.178614577493798 -1.4897162498457475 -3.7975644146567213
lfemur -23.512280617421208 2.654216998216441 -13.951867535691115
ltibia 51.753109901270705
lfoot -6.886388171557483 -0.8181880102272197
ltoes -1.7417721055944482
rfemur -9.597849786079292 0.09482391043387572 31.413689652502285
rtibia 38.94044543940807
rfoot -18.54053477660397 -11.543265296225936
rtoes 4.872644270674623
lowerback 11.761801503572514 -0.2642071437346361 3.364667997109288
upperback 0.31743228725536077 0.18778357287245762 2.1315684053364374
thorax -4.693901511913501 0.006085809142880594 1.2211039038161704
lowerneck -16.626961311907653 -2.9811638017922064 -1.7574993990956616
upperneck 20.23891956440388 -3.7843423559127727 -0.24785166964865146
head 9.186476401026116 -1.8538723677410525 -0.2275340911884272
lclavicle 1.4879779524710286e-16 2.3838093729587417e-16
lhumerus -33.63387863251208 5.293549204788691 81.07583430683154
lradius 19.312889053643335
lwrist 4.149684321630204
lhand -28.682656614429764 19.872695386330356
lfingers 7.12502
lthumb -1.9778256439307118 49.44180267881948
rclavicle 1.4332168790633712e-16 2.341928240922696e-16
rhumerus -25.018454423484787 -21.1472743596445 -74.87497991834812
rradius 25.66319515909575
rwrist 7.173285931504021
rhand -18.008383737653254 22.883464202662804
rfingers 7.12502
rthumb 8.259385641886189 -7.010693883375009
31
root -0.11238159528326358 17.73407085343867 8.191725475289974 -3.8440418230469806 -1.9934053983267837 -3.8294122181973194
lfemur -25.502152700697977 0.7060688824798684 -13.742616446399582
ltibia 43.04381479649049
lfoot -6.415776153372354 1.0038344867130409
ltoes -2.0188700507601305
rfemur -8.80014896498372 0.18783657065395687 31.276067892144876
rtibia 39.41742551716635
rfoot -19.820982341851625 -12.126571313632011
rtoes 3.620945853815355
lowerback 11.708962522567873 0.03052526576368758 3.7628745616445025
upperback 0.2847957214421666 0.656831482890946 2.090590092548891
thorax -4.780382638666988 0.23868654893999797 0.7375610585243076
lowerneck -16.65072081103676 -3.012796360796379 -1.7875041778818455
upperneck 20.211563138163246 -3.83517231526065 -0.00728303312516021
head 9.152256216926258 -1.8565828290033821 -0.13044998596188206
lclavicle 1.4916447147564666e-16 2.3866361874398874e-16
lhumerus -35.21682683101288 6.501325992060488 80.63809818440282
lradius 17.899834331526538
lwrist 2.9737410701130327
lhand -27.999171247467455 20.242226169527147
lfingers 7.12502
lthumb -1.3313930691504594 49.989122438799974
rclavicle 1.4358395039529787e-16 2.3439433221806773e-16
rhumerus -22.892114162038173 -18.27038081263208 -75.93200319798875
rradius 27.390488271996137
rwrist 5.63299858575401
rhand -17.992586040743692 22.238159826711442
rfingers 7.12502
rthumb 8.256693505611919 -7.585171908686953
32
root -0.05698567398541815 17.72963363637327 9.109588756893967 -2.839281250960737 -2.356224702228642 -4.865576884138715
lfemur -25.963827100595285 -2.428266956398999 -12.351183899902956
ltibia 33.44967246621522
lfoot -6.226080340135131 2.875600790110644
ltoes -2.2006491738296123
rfemur -8.20583569946284 0.5679771296521965 31.88826849863835
rtibia 39.45752638933919
rfoot -20.378387595064527 -12.383670182933063
rtoes 1.1959504694085608
lowerback 11.472960893849699 0.2599027911282162 4.958279462787152
upperback 0.1701146979030557 1.100638402093367 2.1604786669248313
thorax -4.823290743999117 0.45010913799369257 -0.03951254605660082
lowerneck -16.685818234160372 -3.026786400073206 -1.759648915617273
upperneck 20.21174179618474 -3.880039078830526 0.16113630022827824
head 9.150111236766692 -1.8721953698933262 -0.09983029531437035
lclavicle 1.5005293435491208e-16 2.3935093452623525e-16
lhumerus -36.16152349399414 7.135382451031482 80.16679850021285
lradius 17.210877622373353
lwrist 2.6730795505395695
lhand -27.953332803662327 20.78376701191904
lfingers 7.12502
lthumb -1.3499517878362597 50.91515832443503
rclavicle 1.4308915256733744e-16 2.340138151394507e-16
rhumerus -21.00839832210447 -15.21680398303939 -77.20721608495705
rradius 29.22560283675518
rwrist 4.2943973757314735
rhand -18.099671169399514 22.063653973549208
rfingers 7.12502
rthumb 8.190987506506056 -7.455174380870032
33
root 0.027261557709082396 17.76376002816519 10.042953868653317 -2.386711212441394 -2.574127420108497 -4.993937176914575
lfemur -25.45308796258591 -5.47438733025801 -11.806590320834301
ltibia 23.936313277429996
lfoot -5.223605833031465 3.9851543150314113
ltoes -1.6586632840283404
rfemur -7.62911790371783 0.9040572568870457 31.802941745628466
rtibia 39.307619107079034
rfoot -20.040810610752697 -11.685338547768641
rtoes -1.8512836025631327
lowerback 11.203759522370047 0.473568874699842 5.396328455654837
upperback 0.08588374334445707 1.4536417600286535 2.160530865570837
thorax -4.8825449571059 0.6314418645222646 -0.6222853919583973
lowerneck -16.647617156033277 -3.036928347964259 -1.6958280158734933
upperneck 20.206947236384877 -3.9101197472903904 0.28441850070889246
head 9.121373161908016 -1.883841063190867 -0.09547560823363238
lclavicle 1.4931759599872926e-16 2.387891769115089e-16
lhumerus -36.75250878703058 8.03980847916499 79.63710394289332
lradius 16.46216032575345
lwrist 2.980478235704727
lhand -27.327542540639552 21.256122577655656
lfingers 7.12502
lthumb -0.7751799055565305 51.41545454874282
rclavicle 1.4370251333603756e-16 2.3448545104258946e-16
rhumerus -19.991249723660154 -13.266910188096922 -78.05055294752054
rradius 30.800084781309025
rwrist 3.432357444279572
rhand -17.994918343507283 22.241873671225044
rfingers 7.12502
rthumb 8.197046904722734 -7.538820163252142
